# xmcd CD database file
#
# Track frame offsets:
#	150
#	13806
#	30509
#	53846
#	78544
#	94948
#	121077
#	137970
#	171205
#	201461
#	227940
#	255140
#	273609
#	304114
#
# Disc length: 4270 seconds
#
# Revision: 0
# Processed by: cddbd v1.5.1PL0 Copyright (c) Steve Scherf et al.
# Submitted via: CDex 1.51
#
DISCID=c010ac0e
DTITLE=Stan Kenton - Live in Stockholm 1956 [Submarine]
DYEAR=1956
DGENRE=Big Band
TTITLE0=Artistry in Rhythm
TTITLE1=Love for Sale
TTITLE2=Swing House
TTITLE3=Yesterdays
TTITLE4=Out of Nowhere
TTITLE5=Royal Blue
TTITLE6=Solitaire
TTITLE7=23oN-82oW
TTITLE8=Concerto to End All Concertos
TTITLE9=Intermission Riff
TTITLE10=Polka Dots and Moonbeams
TTITLE11=Carl
TTITLE12=Stella by Starlight
TTITLE13=Cherokee
EXTD=YEAR: 1956
EXTT0=
EXTT1=
EXTT2=
EXTT3=
EXTT4=
EXTT5=
EXTT6=
EXTT7=
EXTT8=
EXTT9=
EXTT10=
EXTT11=
EXTT12=
EXTT13=
PLAYORDER=
